<?xml version="1.0" standalone="no"?><!DOCTYPE svg PUBLIC "-//W3C//DTD SVG 1.1//EN" "http://www.w3.org/Graphics/SVG/1.1/DTD/svg11.dtd"><svg class="icon" width="200px" height="200.00px" viewBox="0 0 1024 1024" version="1.1" xmlns="http://www.w3.org/2000/svg"><path fill="#ac3aee" d="M476.689655 1006.344828v-1.235862C223.073103 987.206621 22.245517 777.939862 17.743448 520.827586L17.655172 467.862069h1.942069C40.907034 227.098483 234.778483 35.945931 476.689655 18.891034V17.655172h52.965517v0.317794c250.103172 8.774621 452.925793 203.334621 474.747587 449.889103H1006.344828v52.965517c-4.678621 263.062069-214.775172 476.001103-476.689656 485.199448V1006.344828h-52.965517z m52.965517-935.371035V211.862069h-52.965517V72.015448c-212.656552 16.825379-382.887724 184.372966-403.897379 395.828966L211.862069 467.862069v52.965517H70.708966C75.175724 748.685241 252.327724 934.223448 476.689655 951.966897V812.137931h52.965517v140.888276c232.659862-9.145379 419.045517-198.391172 423.635862-432.198621H812.137931v-52.965517h139.069793C929.633103 250.615172 750.486069 79.677793 529.655172 70.973793zM512 335.448276c97.509517 0 176.551724 79.042207 176.551724 176.551724s-79.042207 176.551724-176.551724 176.551724-176.551724-79.042207-176.551724-176.551724 79.042207-176.551724 176.551724-176.551724z m0 52.965517a123.586207 123.586207 0 1 0 0 247.172414 123.586207 123.586207 0 0 0 0-247.172414z"  /></svg>