<?xml version="1.0" standalone="no"?><!DOCTYPE svg PUBLIC "-//W3C//DTD SVG 1.1//EN" "http://www.w3.org/Graphics/SVG/1.1/DTD/svg11.dtd"><svg class="icon" width="200px" height="200.00px" viewBox="0 0 1024 1024" version="1.1" xmlns="http://www.w3.org/2000/svg"><path fill="#2c2c2c" d="M877.714286 0a146.285714 146.285714 0 0 1 146.285714 146.285714v585.142857a146.285714 146.285714 0 0 1-146.285714 146.285715H146.285714a146.285714 146.285714 0 0 1-146.285714-146.285715V146.285714a146.285714 146.285714 0 0 1 146.285714-146.285714h731.428572z m0 73.142857H146.285714a73.142857 73.142857 0 0 0-73.142857 73.142857v585.142857a73.142857 73.142857 0 0 0 73.142857 73.142858h731.428572a73.142857 73.142857 0 0 0 73.142857-73.142858V73.581714l-0.365714 4.973715C946.761143 101.961143 915.602286 73.142857 877.714286 73.142857z m-47.250286 230.107429a36.571429 36.571429 0 0 1 0 51.785143l-141.165714 141.092571a43.885714 43.885714 0 0 1-62.025143 0L508.562286 377.417143 241.371429 577.828571a36.571429 36.571429 0 0 1-46.811429-2.413714L190.171429 570.514286a36.571429 36.571429 0 0 1 7.314285-51.2l287.451429-215.625143a43.885714 43.885714 0 0 1 57.417143 4.096l115.858285 115.931428 120.466286-120.466285a36.571429 36.571429 0 0 1 51.785143 0zM256 950.857143h512a36.571429 36.571429 0 1 1 0 73.142857h-512a36.571429 36.571429 0 1 1 0-73.142857z"  fill-opacity=".85" /></svg>