<?xml version="1.0" standalone="no"?><!DOCTYPE svg PUBLIC "-//W3C//DTD SVG 1.1//EN" "http://www.w3.org/Graphics/SVG/1.1/DTD/svg11.dtd"><svg class="icon" width="200px" height="200.00px" viewBox="0 0 1024 1024" version="1.1" xmlns="http://www.w3.org/2000/svg"><path fill="#2c2c2c" d="M501.053793 109.250207l16.242759 16.225103 16.242758-16.225103a114.758621 114.758621 0 0 1 180.894897 137.939862L847.448276 247.172414a105.931034 105.931034 0 0 1 105.931034 105.931034v494.344828a105.931034 105.931034 0 0 1-105.931034 105.931034H176.551724a105.931034 105.931034 0 0 1-105.931034-105.931034V353.103448a105.931034 105.931034 0 0 1 105.931034-105.931034h143.607173a114.758621 114.758621 0 0 1 180.912551-137.922207zM485.517241 617.931034H123.586207v229.517242a52.965517 52.965517 0 0 0 52.965517 52.965517h308.965517V617.931034zM900.413793 617.931034H538.482759v282.482759H847.448276a52.965517 52.965517 0 0 0 52.965517-52.965517V617.931034zM485.517241 300.137931H176.551724a52.965517 52.965517 0 0 0-52.965517 52.965517v211.862069h361.931034V300.137931zM847.448276 300.137931H538.482759v264.827586H900.413793V353.103448a52.965517 52.965517 0 0 0-52.965517-52.965517zM570.968276 146.714483l-53.636414 53.636414-37.446621-37.393656-16.278069-16.242758a61.793103 61.793103 0 0 0-87.393103 87.357793l13.117793 13.100138h255.947035l13.082482-13.064828a61.793103 61.793103 0 0 0-87.393103-87.393103z"  /></svg>