<?xml version="1.0" standalone="no"?><!DOCTYPE svg PUBLIC "-//W3C//DTD SVG 1.1//EN" "http://www.w3.org/Graphics/SVG/1.1/DTD/svg11.dtd"><svg class="icon" width="200px" height="200.00px" viewBox="0 0 1024 1024" version="1.1" xmlns="http://www.w3.org/2000/svg"><path fill="#2c2c2c" d="M841.142857 0a146.285714 146.285714 0 0 1 146.285714 146.285714v731.428572a146.285714 146.285714 0 0 1-146.285714 146.285714h-658.285714a146.285714 146.285714 0 0 1-146.285714-146.285714V146.285714a146.285714 146.285714 0 0 1 146.285714-146.285714h658.285714z m-731.428571 877.714286a73.142857 73.142857 0 0 0 73.142857 73.142857h658.285714a73.142857 73.142857 0 0 0 73.142857-73.142857V730.624H690.468571l-55.588571 60.123429-10.825143 11.702857H392.045714l-10.459428-9.728-66.779429-62.098286H109.714286V877.714286z m731.428571-804.571429h-658.285714a73.142857 73.142857 0 0 0-73.142857 73.142857v511.195429h233.837714l10.459429 9.801143 66.706285 61.952h171.373715l55.515428-59.977143 10.825143-11.702857 255.853714-0.073143V146.285714a73.142857 73.142857 0 0 0-73.142857-73.142857zM658.285714 438.857143a36.571429 36.571429 0 0 1 0 73.142857H365.714286a36.571429 36.571429 0 0 1 0-73.142857h292.571428z m0-219.428572a36.571429 36.571429 0 0 1 0 73.142858H365.714286a36.571429 36.571429 0 0 1 0-73.142858h292.571428z"  fill-opacity=".85" /></svg>