<?xml version="1.0" standalone="no"?><!DOCTYPE svg PUBLIC "-//W3C//DTD SVG 1.1//EN" "http://www.w3.org/Graphics/SVG/1.1/DTD/svg11.dtd"><svg class="icon" width="200px" height="200.00px" viewBox="0 0 1024 1024" version="1.1" xmlns="http://www.w3.org/2000/svg"><path fill="#2c2c2c" d="M1019.172571 492.763429a88.502857 88.502857 0 0 0-25.6-19.163429c-12.873143 0-32.036571-12.8-44.909714-25.6-38.473143-38.4-38.473143-108.763429 0-153.6 12.873143-12.8 12.873143-38.4 0-51.2L775.606857 70.363429c-6.436571 0-12.8-6.363429-25.6-6.363429-12.873143 0-19.236571 6.436571-25.673143 12.8-38.473143 38.4-108.982857 38.4-153.819428 0-12.873143-12.8-19.236571-32.036571-25.6-51.2 0-6.363429-6.436571-19.163429-19.309715-25.6h-25.6L269.165714 64c-25.6 6.436571-32.036571 25.6-32.036571 44.836571 12.8 38.4 0 76.8-25.673143 102.4-25.6 25.6-64.073143 38.4-102.546286 25.6-19.236571 0-38.473143 6.363429-44.909714 31.963429L0 499.2c0 6.363429 0 19.236571 6.436571 25.6 6.363429 6.436571 12.8 12.8 25.6 19.236571 12.8 6.363429 32.036571 12.8 44.909715 25.6 38.4 38.326857 38.4 108.763429 0 153.6-6.436571 6.363429-12.873143 19.163429-12.873143 25.6 0 12.8 6.436571 19.163429 12.873143 25.6l173.056 172.763429c12.8 12.8 38.473143 12.8 51.2 0 38.546286-38.4 108.982857-38.4 153.892571 0 12.8 12.8 25.6 32.036571 25.6 51.2 0 12.8 6.436571 19.163429 19.309714 25.6h25.6l230.765715-64c19.236571-6.436571 32.036571-25.6 25.6-44.836571-12.8-38.326857 0-76.8 25.673143-102.4 25.6-25.6 64.146286-38.326857 102.546285-25.6 19.236571 6.436571 38.473143-6.363429 44.909715-25.6l64.073142-236.763429c6.436571-12.8 6.436571-19.236571 0-32.036571zM897.462857 704c-51.2 0-102.546286 19.163429-141.019428 51.2a223.451429 223.451429 0 0 0-51.2 140.8l-166.765715 44.836571c-6.363429-19.236571-19.163429-32.036571-32.036571-51.2-32.036571-32.036571-76.873143-51.2-128.146286-51.2-38.473143 0-70.509714 12.8-102.619428 31.963429l-121.782858-121.563429a184.758857 184.758857 0 0 0-25.6-230.4 194.779429 194.779429 0 0 0-44.909714-32.036571l44.909714-166.4c51.2 0 102.546286-19.236571 141.019429-51.2a223.451429 223.451429 0 0 0 51.2-140.8l166.765714-44.836571c6.363429 12.8 19.163429 32.036571 32.036572 44.836571 57.636571 57.636571 160.182857 70.363429 230.765714 25.6l121.782857 121.636571c-44.909714 70.363429-38.473143 166.326857 25.6 223.963429 12.8 12.8 32.036571 25.6 44.909714 32.036571l-44.909714 172.763429z"  /><path fill="#2c2c2c" d="M512.804571 300.763429C397.385143 300.763429 301.275429 396.8 301.275429 512S397.385143 723.163429 512.731429 723.163429c115.346286 0 211.529143-95.963429 211.529142-211.163429S628.150857 300.763429 512.804571 300.763429z m0 345.673142c-76.946286 0-134.582857-64-134.582857-134.436571 0-76.8 64.073143-134.436571 134.582857-134.436571 70.509714 0 134.582857 64 134.582858 134.436571 0 76.8-57.636571 134.436571-134.582858 134.436571z"  /></svg>