<?xml version="1.0" standalone="no"?><!DOCTYPE svg PUBLIC "-//W3C//DTD SVG 1.1//EN" "http://www.w3.org/Graphics/SVG/1.1/DTD/svg11.dtd"><svg class="icon" width="200px" height="200.00px" viewBox="0 0 1024 1024" version="1.1" xmlns="http://www.w3.org/2000/svg"><path fill="#2c2c2c" d="M617.931034 0a35.310345 35.310345 0 0 1 35.310345 35.310345v133.790896a370.935172 370.935172 0 0 1 106.707862 67.248552l120.743725-69.737931a35.310345 35.310345 0 0 1 48.233931 12.941241l88.275862 152.893794a35.310345 35.310345 0 0 1-12.923587 48.233931l-126.110896 72.809931a373.495172 373.495172 0 0 1 0 117.018482l126.110896 72.809931a35.310345 35.310345 0 0 1 12.923587 48.233931l-88.275862 152.893794a35.310345 35.310345 0 0 1-48.233931 12.923586l-120.76138-69.702621A370.935172 370.935172 0 0 1 653.241379 854.898759V988.689655a35.310345 35.310345 0 0 1-35.310345 35.310345H441.37931a35.310345 35.310345 0 0 1-35.310344-35.310345v-121.291034a369.805241 369.805241 0 0 1-127.770483-67.566345l-99.681104 57.555862a35.310345 35.310345 0 0 1-48.233931-12.941241l-88.275862-152.893794a35.310345 35.310345 0 0 1 12.923586-48.233931l94.208-54.377931A372.294621 372.294621 0 0 1 141.241379 512c0-26.376828 2.754207-52.100414 7.997793-76.923586l-94.208-54.377931a35.310345 35.310345 0 0 1-12.923586-48.251586l88.275862-152.893794a35.310345 35.310345 0 0 1 48.233931-12.923586l99.681104 57.538207A369.805241 369.805241 0 0 1 406.068966 156.583724L406.068966 35.310345a35.310345 35.310345 0 0 1 35.310344-35.310345h176.551724z m-17.655172 52.965517h-141.241379v143.130483l-37.85269 11.264a316.839724 316.839724 0 0 0-109.479724 57.908966l-28.301241 23.004689-31.602759-18.237793-84.374069-48.728276-70.62069 122.33269 78.918621 45.550345 33.262345 19.226482-7.927173 37.605518A319.329103 319.329103 0 0 0 194.206897 512c0 22.404414 2.295172 44.491034 6.850206 65.995034l7.944828 37.587863-33.28 19.208827-78.918621 45.550345 70.62069 122.33269 84.391724-48.710621 31.585104-18.237793 28.301241 23.004689a316.839724 316.839724 0 0 0 109.479724 57.908966l37.870345 11.264L459.034483 971.034483h141.241379v-151.587311l32.785655-13.506206a317.969655 317.969655 0 0 0 91.436138-57.644138l28.601379-25.723587 33.297656 19.244138 105.472 60.85738 70.620689-122.33269-110.803862-63.96469-31.532138-18.202482 5.702621-35.963587a320.529655 320.529655 0 0 0 0-100.42262l-5.702621-35.963587 31.532138-18.184827 110.803862-64-70.620689-122.33269-105.43669 60.910345-33.31531 19.244138-28.60138-25.758897a317.969655 317.969655 0 0 0-91.453793-57.644138L600.275862 204.552828V52.965517z m-70.62069 229.517242c126.764138 0 229.517241 102.753103 229.517242 229.517241s-102.753103 229.517241-229.517242 229.517241-229.517241-102.753103-229.517241-229.517241 102.753103-229.517241 229.517241-229.517241z m0 52.965517c-97.509517 0-176.551724 79.042207-176.551724 176.551724s79.042207 176.551724 176.551724 176.551724 176.551724-79.042207 176.551725-176.551724-79.042207-176.551724-176.551725-176.551724z"  /></svg>