<?xml version="1.0" standalone="no"?><!DOCTYPE svg PUBLIC "-//W3C//DTD SVG 1.1//EN" "http://www.w3.org/Graphics/SVG/1.1/DTD/svg11.dtd"><svg class="icon" width="200px" height="200.00px" viewBox="0 0 1024 1024" version="1.1" xmlns="http://www.w3.org/2000/svg"><path fill="#2c2c2c" d="M582.62069 105.931034c185.255724 0 335.448276 150.192552 335.448276 335.448276l0.017655 63.240828A141.294345 141.294345 0 0 1 1006.344828 635.586207v123.586207a141.241379 141.241379 0 0 1-141.24138 141.241379h-123.586207a17.655172 17.655172 0 0 1-17.655172-17.655172V512a17.655172 17.655172 0 0 1 17.655172-17.655172h123.586207v-52.965518c0-154.14731-123.480276-279.481379-276.921379-282.429793L582.62069 158.896552h-141.24138C285.360552 158.896552 158.896552 285.360552 158.896552 441.37931v52.965518h123.586207a17.655172 17.655172 0 0 1 17.655172 17.655172v370.758621a17.655172 17.655172 0 0 1-17.655172 17.655172H158.896552a141.241379 141.241379 0 0 1-141.24138-141.241379v-123.586207a141.294345 141.294345 0 0 1 88.275862-130.966069V441.37931C105.931034 256.123586 256.123586 105.931034 441.37931 105.931034h141.24138zM247.172414 547.310345H158.896552a88.275862 88.275862 0 0 0-88.187586 84.444689L70.62069 635.586207v123.586207a88.275862 88.275862 0 0 0 88.275862 88.275862h88.275862V547.310345z m617.931034 0h-88.275862v300.137931h88.275862a88.275862 88.275862 0 0 0 88.275862-88.275862v-123.586207l-0.088276-3.831173A88.275862 88.275862 0 0 0 865.103448 547.310345z"  /></svg>