<?xml version="1.0" standalone="no"?><!DOCTYPE svg PUBLIC "-//W3C//DTD SVG 1.1//EN" "http://www.w3.org/Graphics/SVG/1.1/DTD/svg11.dtd"><svg class="icon" width="200px" height="200.00px" viewBox="0 0 1024 1024" version="1.1" xmlns="http://www.w3.org/2000/svg"><path fill="#2c2c2c" d="M846.018207 126.817103c0.953379 4.64331 1.430069 9.357241 1.430069 14.088828v132.961103a158.967172 158.967172 0 0 1 0 299.714207v132.978759c0 38.806069-31.602759 70.267586-70.62069 70.267586a70.973793 70.973793 0 0 1-14.159448-1.412414L459.034483 713.586759V838.62069a114.758621 114.758621 0 1 1-229.517242 0v-171.731862l-102.43531-20.850759A70.355862 70.355862 0 0 1 70.62069 577.182897V270.283034c0-33.368276 23.604966-62.146207 56.461241-68.855172l635.586207-129.341793c38.223448-7.785931 75.528828 16.737103 83.332414 54.74869zM282.482759 677.658483V838.62069a61.793103 61.793103 0 0 0 123.586207 0v-135.803587l-123.586207-25.15862zM773.296552 123.692138l-635.586207 129.359448a17.584552 17.584552 0 0 0-14.124138 17.213793v306.935173c0 8.333241 5.896828 15.536552 14.124138 17.196138l635.586207 129.377103a17.619862 17.619862 0 0 0 21.186207-17.213793V140.888276a17.655172 17.655172 0 0 0-21.186207-17.213793zM847.448276 331.970207v183.507862A105.895724 105.895724 0 0 0 900.413793 423.724138c0-39.194483-21.292138-73.445517-52.947862-91.753931z"  /></svg>