<?xml version="1.0" standalone="no"?><!DOCTYPE svg PUBLIC "-//W3C//DTD SVG 1.1//EN" "http://www.w3.org/Graphics/SVG/1.1/DTD/svg11.dtd"><svg class="icon" width="200px" height="200.00px" viewBox="0 0 1024 1024" version="1.1" xmlns="http://www.w3.org/2000/svg"><path fill="#2c2c2c" d="M918.068966 88.275862a70.62069 70.62069 0 0 1 70.620689 70.62069v670.896551a105.931034 105.931034 0 0 1-105.931034 105.931035H141.241379a105.931034 105.931034 0 0 1-105.931034-105.931035V335.448276a105.931034 105.931034 0 0 1 105.931034-105.931035h366.680276l12.535173-81.355034A70.62069 70.62069 0 0 1 590.230069 88.275862H918.068966z m0 52.965517H590.247724a17.655172 17.655172 0 0 0-17.460965 14.971587l-12.517518 81.355034L553.366069 282.482759H141.241379a52.965517 52.965517 0 0 0-52.965517 52.965517v494.344827a52.965517 52.965517 0 0 0 52.965517 52.965518h741.517242a52.965517 52.965517 0 0 0 52.965517-52.965518V158.896552a17.655172 17.655172 0 0 0-17.655172-17.655173z"  /></svg>