<?xml version="1.0" standalone="no"?><!DOCTYPE svg PUBLIC "-//W3C//DTD SVG 1.1//EN" "http://www.w3.org/Graphics/SVG/1.1/DTD/svg11.dtd"><svg class="icon" width="200px" height="200.00px" viewBox="0 0 1024 1024" version="1.1" xmlns="http://www.w3.org/2000/svg"><path fill="#ac3aee" d="M609.103448 70.62069A97.103448 97.103448 0 0 1 706.206897 167.724138V194.206897h176.551724a105.931034 105.931034 0 0 1 105.931034 105.931034v547.310345a105.931034 105.931034 0 0 1-105.931034 105.931034H141.241379a105.931034 105.931034 0 0 1-105.931034-105.931034V300.137931a105.931034 105.931034 0 0 1 105.931034-105.931034h211.862069V167.724138A97.103448 97.103448 0 0 1 450.206897 70.62069h158.896551zM211.862069 247.172414H141.241379a52.965517 52.965517 0 0 0-52.965517 52.965517v547.310345a52.965517 52.965517 0 0 0 52.965517 52.965517h70.62069V247.172414z m547.310345 0H264.827586v653.241379h494.344828V247.172414z m123.586207 0h-70.62069v653.241379h70.62069a52.965517 52.965517 0 0 0 52.965517-52.965517V300.137931a52.965517 52.965517 0 0 0-52.965517-52.965517zM609.103448 123.586207h-158.896551A44.137931 44.137931 0 0 0 406.068966 167.724138V194.206897h247.172413V167.724138a44.137931 44.137931 0 0 0-41.242482-44.049655L609.103448 123.586207z"  /></svg>