<?xml version="1.0" standalone="no"?><!DOCTYPE svg PUBLIC "-//W3C//DTD SVG 1.1//EN" "http://www.w3.org/Graphics/SVG/1.1/DTD/svg11.dtd"><svg class="icon" width="200px" height="200.00px" viewBox="0 0 1024 1024" version="1.1" xmlns="http://www.w3.org/2000/svg"><path fill="#ac3aee" d="M953.37931 264.827586a70.62069 70.62069 0 0 1 70.62069 70.62069v600.275862a70.62069 70.62069 0 0 1-70.62069 70.62069H300.137931a70.62069 70.62069 0 0 1-70.62069-70.62069V335.448276a70.62069 70.62069 0 0 1 70.62069-70.62069h653.241379z m0 52.965517H300.137931a17.655172 17.655172 0 0 0-17.655172 17.655173v600.275862a17.655172 17.655172 0 0 0 17.655172 17.655172h653.241379a17.655172 17.655172 0 0 0 17.655173-17.655172V335.448276a17.655172 17.655172 0 0 0-17.655173-17.655173z m-70.620689 494.344828v52.965517H370.758621v-52.965517h512z m35.310345-406.068965v282.482758H635.586207V406.068966h282.482759zM547.310345 635.586207v52.965517H370.758621v-52.965517h176.551724z m317.793103-176.551724H688.551724v176.551724h176.551724V459.034483z m-317.793103-52.965517v52.965517H370.758621v-52.965517h176.551724z"  /><path fill="#ac3aee" d="M769.836138 70.020414L822.024828 264.827586h-54.819311L718.671448 83.720828a17.655172 17.655172 0 0 0-21.627586-12.482207L66.065655 240.304552a17.655172 17.655172 0 0 0-12.482207 21.627586l155.365518 579.831172a17.655172 17.655172 0 0 0 20.568275 12.711724v53.265656a70.638345 70.638345 0 0 1-71.732965-52.259311l-155.365517-579.831172a70.62069 70.62069 0 0 1 49.946482-86.510345l630.978207-169.065931a70.62069 70.62069 0 0 1 86.49269 49.946483z"  /></svg>