<?xml version="1.0" standalone="no"?><!DOCTYPE svg PUBLIC "-//W3C//DTD SVG 1.1//EN" "http://www.w3.org/Graphics/SVG/1.1/DTD/svg11.dtd"><svg t="1772865095915" class="icon" viewBox="0 0 1024 1024" version="1.1" xmlns="http://www.w3.org/2000/svg" p-id="10922" xmlns:xlink="http://www.w3.org/1999/xlink" width="200" height="200"><path d="M532.864 215.893333a85.333333 85.333333 0 0 0-41.728 0c-13.653333 3.413333-27.392 12.373333-72.96 44.714667L281.6 357.546667c-33.706667 23.893333-43.306667 31.232-50.005333 39.722666a85.333333 85.333333 0 0 0-14.848 28.757334c-3.029333 10.368-3.413333 22.442667-3.413334 63.744v158.72c0 36.565333 0 61.44 1.578667 80.64 1.493333 18.688 4.266667 28.245333 7.68 34.944a85.333333 85.333333 0 0 0 37.290667 37.290666c6.698667 3.413333 16.213333 6.144 34.986666 7.68C314.069333 810.666667 338.901333 810.666667 375.466667 810.666667h273.066666c36.565333 0 61.397333-0.042667 80.64-1.621334 18.688-1.536 28.245333-4.266667 34.901334-7.68a85.333333 85.333333 0 0 0 37.290666-37.290666c3.413333-6.698667 6.186667-16.213333 7.68-34.986667 1.578667-19.2 1.621333-44.032 1.621334-80.554667v-158.762666c0-41.301333-0.426667-53.333333-3.456-63.744a85.333333 85.333333 0 0 0-14.848-28.757334c-6.698667-8.533333-16.298667-15.786667-49.962667-39.722666l-136.533333-96.938667c-45.610667-32.384-59.392-41.301333-73.002667-44.714667z m-62.592-82.773333a170.666667 170.666667 0 0 1 83.456 0c31.146667 7.893333 58.752 27.52 95.445333 53.589333l6.101334 4.309334 136.533333 96.938666 4.437333 3.157334c27.264 19.328 47.872 33.92 63.146667 53.333333a170.666667 170.666667 0 0 1 29.696 57.472c6.954667 23.722667 6.954667 48.981333 6.912 82.389333V650.282667c0 34.346667 0 62.72-1.877333 85.76-1.962667 24.021333-6.186667 46.08-16.725334 66.773333a170.666667 170.666667 0 0 1-74.581333 74.581333c-20.693333 10.538667-42.752 14.762667-66.730667 16.725334-23.082667 1.877333-51.456 1.877333-85.76 1.877333H373.674667c-34.346667 0-62.72 0-85.76-1.877333-24.021333-1.962667-46.08-6.186667-66.773334-16.725334a170.666667 170.666667 0 0 1-74.581333-74.581333c-10.538667-20.736-14.762667-42.752-16.725333-66.730667C128 712.96 128 684.629333 128 650.24v-160.512-5.461333c0-33.450667 0-58.666667 6.954667-82.346667a170.666667 170.666667 0 0 1 29.653333-57.514667c15.317333-19.413333 35.882667-34.005333 63.146667-53.333333l4.437333-3.157333 136.533333-96.938667 6.101334-4.309333c36.693333-26.069333 64.298667-45.696 95.445333-53.589334z" fill="#2A343D" p-id="10923"></path></svg>