<?xml version="1.0" standalone="no"?><!DOCTYPE svg PUBLIC "-//W3C//DTD SVG 1.1//EN" "http://www.w3.org/Graphics/SVG/1.1/DTD/svg11.dtd"><svg class="icon" width="200px" height="200.00px" viewBox="0 0 1024 1024" version="1.1" xmlns="http://www.w3.org/2000/svg"><path fill="#ac3aee" d="M182.857143 987.428571a146.285714 146.285714 0 0 1-146.285714-146.285714v-658.285714a146.285714 146.285714 0 0 1 146.285714-146.285714h658.285714a146.285714 146.285714 0 0 1 146.285714 146.285714v658.285714a146.285714 146.285714 0 0 1-146.285714 146.285714h-658.285714z m146.285714-877.714285h-146.285714a73.142857 73.142857 0 0 0-73.142857 73.142857v658.285714a73.142857 73.142857 0 0 0 73.142857 73.142857h146.285714v-804.571428z m292.571429 0h-219.428572v804.571428h219.428572v-804.571428z m219.428571 0h-146.285714v804.571428h146.285714a73.142857 73.142857 0 0 0 73.142857-73.142857v-658.285714a73.142857 73.142857 0 0 0-73.142857-73.142857z m-36.571428 658.285714a36.571429 36.571429 0 1 1 0 73.142857 36.571429 36.571429 0 0 1 0-73.142857z m-585.142858 0a36.571429 36.571429 0 1 1 0 73.142857 36.571429 36.571429 0 0 1 0-73.142857z m292.571429 0a36.571429 36.571429 0 1 1 0 73.142857 36.571429 36.571429 0 0 1 0-73.142857z"  fill-opacity=".85" /></svg>