<?xml version="1.0" standalone="no"?><!DOCTYPE svg PUBLIC "-//W3C//DTD SVG 1.1//EN" "http://www.w3.org/Graphics/SVG/1.1/DTD/svg11.dtd"><svg class="icon" width="200px" height="200.00px" viewBox="0 0 1024 1024" version="1.1" xmlns="http://www.w3.org/2000/svg"><path fill="#2c2c2c" d="M731.428571 0a36.571429 36.571429 0 0 1 36.571429 36.571429V73.142857h73.142857a146.285714 146.285714 0 0 1 146.285714 146.285714v658.285715a146.285714 146.285714 0 0 1-146.285714 146.285714h-658.285714a146.285714 146.285714 0 0 1-146.285714-146.285714V219.428571a146.285714 146.285714 0 0 1 146.285714-146.285714h73.142857V36.571429A36.571429 36.571429 0 0 1 292.571429 0h438.857142zM256 146.285714h-73.142857a73.142857 73.142857 0 0 0-73.142857 73.142857v658.285715a73.142857 73.142857 0 0 0 73.142857 73.142857h658.285714a73.142857 73.142857 0 0 0 73.142857-73.142857V219.428571a73.142857 73.142857 0 0 0-73.142857-73.142857h-73.142857v36.571429a36.571429 36.571429 0 0 1-36.571429 36.571428H292.571429a36.571429 36.571429 0 0 1-36.571429-36.571428V146.285714z m301.714286 464.164572a36.571429 36.571429 0 0 1 51.712 0l103.424 103.497143a36.571429 36.571429 0 0 1 0 51.712l-103.424 103.424a36.571429 36.571429 0 1 1-51.712-51.712l41.106285-41.106286H336.457143a36.571429 36.571429 0 1 1 0-73.142857h262.217143l-40.96-40.96a36.571429 36.571429 0 0 1 0-51.712z m-91.721143-292.571429a36.571429 36.571429 0 0 1 0 51.785143l-40.96 40.886857h262.217143a36.571429 36.571429 0 1 1 0 73.142857H424.886857l41.106286 41.106286a36.571429 36.571429 0 0 1-51.712 51.712L310.784 473.088a36.571429 36.571429 0 0 1 0-51.712l103.497143-103.497143a36.571429 36.571429 0 0 1 51.712 0zM694.857143 73.142857h-365.714286v73.142857h365.714286V73.142857z"  fill-opacity=".85" /></svg>