<?xml version="1.0" standalone="no"?><!DOCTYPE svg PUBLIC "-//W3C//DTD SVG 1.1//EN" "http://www.w3.org/Graphics/SVG/1.1/DTD/svg11.dtd"><svg class="icon" width="200px" height="200.00px" viewBox="0 0 1024 1024" version="1.1" xmlns="http://www.w3.org/2000/svg"><path fill="#2c2c2c" d="M617.931034 70.62069a70.62069 70.62069 0 0 1 70.62069 70.620689v52.965518h264.827586v176.551724h-58.844689l-50.776276 456.968827A141.241379 141.241379 0 0 1 703.382069 953.37931H320.617931a141.241379 141.241379 0 0 1-140.358621-125.651862L129.447724 370.758621H70.62069V194.206897h264.827586V141.241379a70.62069 70.62069 0 0 1 70.62069-70.620689h211.862068z m223.302621 300.137931H182.74869l50.140689 451.124965a88.275862 88.275862 0 0 0 83.791449 78.441931l3.937103 0.088276h382.764138a88.275862 88.275862 0 0 0 87.746207-78.530207L841.216 370.758621zM388.413793 459.034483v353.103448h-52.965517V459.034483h52.965517z m264.827586 0v353.103448h-52.965517V459.034483h52.965517z m247.172414-211.862069H123.586207v70.620689h776.827586v-70.620689zM617.931034 123.586207H406.068966a17.655172 17.655172 0 0 0-17.655173 17.655172v52.965518h247.172414V141.241379a17.655172 17.655172 0 0 0-15.589517-17.531586L617.931034 123.586207z"  /></svg>