<?xml version="1.0" standalone="no"?><!DOCTYPE svg PUBLIC "-//W3C//DTD SVG 1.1//EN" "http://www.w3.org/Graphics/SVG/1.1/DTD/svg11.dtd"><svg class="icon" width="200px" height="200.00px" viewBox="0 0 1024 1024" version="1.1" xmlns="http://www.w3.org/2000/svg"><path fill="#ac3aee" d="M552.228571 11.483429l365.714286 104.521142A146.285714 146.285714 0 0 1 1024 256.658286V877.714286a146.285714 146.285714 0 0 1-146.285714 146.285714H146.285714a146.285714 146.285714 0 0 1-146.285714-146.285714V256.658286a146.285714 146.285714 0 0 1 106.057143-140.653715l365.714286-104.521142a146.285714 146.285714 0 0 1 80.457142 0z m-60.342857 70.363428l-365.714285 104.448A73.142857 73.142857 0 0 0 73.142857 256.731429V877.714286a73.142857 73.142857 0 0 0 73.142857 73.142857h731.428572a73.142857 73.142857 0 0 0 73.142857-73.142857V256.658286a73.142857 73.142857 0 0 0-53.028572-70.363429l-365.714285-104.448a73.142857 73.142857 0 0 0-40.228572 0z"  fill-opacity=".85" /><path fill="#ac3aee" d="M512 365.714286a182.857143 182.857143 0 1 1 0 365.714285 182.857143 182.857143 0 0 1 0-365.714285z m0 73.142857a109.714286 109.714286 0 1 0 0 219.428571 109.714286 109.714286 0 0 0 0-219.428571z"  fill-opacity=".85" /></svg>