<?xml version="1.0" standalone="no"?><!DOCTYPE svg PUBLIC "-//W3C//DTD SVG 1.1//EN" "http://www.w3.org/Graphics/SVG/1.1/DTD/svg11.dtd"><svg class="icon" width="200px" height="200.00px" viewBox="0 0 1024 1024" version="1.1" xmlns="http://www.w3.org/2000/svg"><path fill="#ac3aee" d="M812.137931 35.310345a105.931034 105.931034 0 0 1 105.931035 105.931034v741.517242a105.931034 105.931034 0 0 1-105.931035 105.931034H211.862069a105.931034 105.931034 0 0 1-105.931035-105.931034V141.241379a105.931034 105.931034 0 0 1 105.931035-105.931034h600.275862z m52.965517 723.862069H158.896552v123.586207a52.965517 52.965517 0 0 0 52.965517 52.965517h600.275862a52.965517 52.965517 0 0 0 52.965517-52.965517v-123.586207z m-282.482758 70.620689v52.965518h-141.24138v-52.965518h141.24138zM812.137931 88.275862H211.862069a52.965517 52.965517 0 0 0-52.965517 52.965517v564.965518h706.206896V141.241379a52.965517 52.965517 0 0 0-52.965517-52.965517z"  /></svg>