<?xml version="1.0" standalone="no"?><!DOCTYPE svg PUBLIC "-//W3C//DTD SVG 1.1//EN" "http://www.w3.org/Graphics/SVG/1.1/DTD/svg11.dtd"><svg class="icon" width="200px" height="200.00px" viewBox="0 0 1024 1024" version="1.1" xmlns="http://www.w3.org/2000/svg"><path fill="#ac3aee" d="M688.551724 158.896552a105.931034 105.931034 0 0 1 105.931035 105.931034v115.076414l179.164689-89.56469a35.310345 35.310345 0 0 1 51.111724 31.602759v380.062897a35.310345 35.310345 0 0 1-51.111724 31.602758L794.482759 643.972414V759.172414a105.931034 105.931034 0 0 1-105.931035 105.931034H105.931034a105.931034 105.931034 0 0 1-105.931034-105.931034V264.827586a105.931034 105.931034 0 0 1 105.931034-105.931034h582.62069z m0 52.965517H105.931034a52.965517 52.965517 0 0 0-52.965517 52.965517v494.344828a52.965517 52.965517 0 0 0 52.965517 52.965517h582.62069a52.965517 52.965517 0 0 0 52.965517-52.965517V264.827586a52.965517 52.965517 0 0 0-52.965517-52.965517z m283.224276 138.646069L794.482759 439.137103v145.637518l177.293241 88.664276v-322.913104zM617.931034 282.482759a52.965517 52.965517 0 1 1 0 105.931034 52.965517 52.965517 0 0 1 0-105.931034z"  /></svg>