<?xml version="1.0" standalone="no"?><!DOCTYPE svg PUBLIC "-//W3C//DTD SVG 1.1//EN" "http://www.w3.org/Graphics/SVG/1.1/DTD/svg11.dtd"><svg t="1772864695801" class="icon" viewBox="0 0 1024 1024" version="1.1" xmlns="http://www.w3.org/2000/svg" p-id="7868" xmlns:xlink="http://www.w3.org/1999/xlink" width="200" height="200"><path d="M883.27 749.58c0 28.68-23.25 51.94-51.94 51.94H229.15c-28.69 0-51.94-23.25-51.94-51.94V323.89h654.11c28.68 0 51.94 23.25 51.94 51.94v373.75z m-706.06-529.5c0.03-5.71 4.65-10.33 10.36-10.36h272.18c3.68 0 7.09 1.93 8.97 5.09l27.64 46.79H177.21v-41.52z m654.12 41.51H568.79l-46.36-78.79a72.732 72.732 0 0 0-62.61-35.7H187.64c-40.17 0-72.73 32.56-72.73 72.73v529.75c0.1 63.02 51.16 114.08 114.18 114.18h602.17c63.02-0.1 114.08-51.16 114.18-114.18V375.83c-0.1-63.02-51.16-114.08-114.18-114.18l0.07-0.06z" fill="#333333" p-id="7869"></path></svg>